<svg xmlns="http://www.w3.org/2000/svg" version="1.1" xmlns:xlink="http://www.w3.org/1999/xlink" width="512" height="512" x="0" y="0" viewBox="0 0 497 497" style="enable-background:new 0 0 512 512" xml:space="preserve" class="">
    <g>
        <path fill="#676fb2" d="M127.014 4.023C113.676-2.312 97.879-1.09 85.712 7.277 33.947 42.877 0 102.512 0 170.084c0 45.397 15.33 87.208 41.082 120.562 6.888.96 13.921 1.467 21.073 1.467 83.584 0 151.343-67.754 151.343-151.332-.001-60.367-35.354-112.471-86.484-136.758z" opacity="1" data-original="#676fb2"></path>
        <path fill="#d4d4ff" d="M72.794 234.183c-10.167-19.664-15.459-41.438-15.459-64.099 0-42.972 19.725-83.385 53.204-109.908 27.981 16.874 45.622 47.588 45.622 80.606.001 48.234-36.522 88.1-83.367 93.401z" opacity="1" data-original="#d4d4ff"></path>
        <path fill="#8288cb" d="M369.987 4.023c13.338-6.335 29.135-5.113 41.301 3.254C463.054 42.877 497 102.512 497 170.084c0 45.397-15.33 87.208-41.082 120.562a152.572 152.572 0 0 1-21.073 1.467c-83.584 0-151.343-67.754-151.343-151.332.001-60.367 35.354-112.471 86.485-136.758z" opacity="1" data-original="#8288cb"></path>
        <path fill="#efedff" d="M424.206 234.183c-46.844-5.301-83.368-45.167-83.368-93.402 0-33.018 17.64-63.731 45.623-80.606 33.479 26.523 53.204 66.937 53.204 109.908 0 22.663-5.292 44.436-15.459 64.1z" opacity="1" data-original="#efedff"></path>
        <path fill="#676fb2" d="m286.117 81.096-14.303 6.799-5.306-14.92c-6.026-16.943-29.989-16.943-36.014 0l-5.306 14.92-14.303-6.799c-16.242-7.72-33.187 9.223-25.466 25.464l6.131 12.897h113.904l6.131-12.897c7.718-16.241-9.226-33.184-25.468-25.464z" opacity="1" data-original="#676fb2"></path>
        <path fill="#8288cb" d="M496.116 321.744c-9.579-28.125-38.936-65.149-64.261-100.206-26.414-34.817-48.796-67.667-69.564-81.899-13.336-9.385-33.589-16.111-56.838-20.182l-125.4 30v309.65l68.449 37.885c42.083 0 98.749-20.218 141.896-53.557 43.891-33.675 74.015-71.376 79.437-94.881 18.993-2.484 30.546-14.381 26.281-26.81z" opacity="1" data-original="#8288cb"></path>
        <path fill="#676fb2" d="M305.452 119.456c-35.623-6.238-78.281-6.238-113.903 0-23.25 4.071-43.502 10.797-56.838 20.182-20.769 14.237-43.151 47.082-69.564 81.899C39.822 256.593 10.465 293.62.886 321.743c-4.266 12.43 7.287 24.323 26.282 26.809 5.421 23.505 35.546 61.207 79.437 94.881C149.751 476.772 207 496.991 248.5 496.991c-26.689-38.897-42.232-82.314-47.259-126.334-5.596-49.003 1.861-98.772 21.578-143.976 17.782-40.765 45.512-77.818 82.633-107.225z" opacity="1" data-original="#676fb2"></path>
        <circle cx="248.5" cy="370.655" r="56" fill="#d4d4ff" opacity="1" data-original="#d4d4ff"></circle>
        <path fill="#efedff" d="M401.96 282.312c-3.144-4.358-10.106-14.012-18.633-25.565a167.372 167.372 0 0 0-60.166-50.481c-11.457-5.698-25.295-3.285-34.342 5.763l-40.326 40.326-18.583-18.582-7.091-7.091h-44.59v120.964l23.012 23.011c8.319.025 16.451 3.3 21.949 9.545a14.418 14.418 0 0 0 10.854 4.908c7.983 0 14.456-6.472 14.456-14.456 0 7.984 6.472 14.456 14.456 14.456 4.325 0 8.206-1.899 10.854-4.908 5.52-6.27 13.697-9.547 22.051-9.547h58.201c20.892 0 40.582-10.109 52.463-27.293 2.89-4.18 4.612-7.401 5.094-9.335 4.455-17.87 1.116-36.779-9.659-51.715z" opacity="1" data-original="#efedff"></path>
        <path fill="#d4d4ff" d="m222.819 226.681-14.653-14.654c-9.047-9.047-22.885-11.46-34.341-5.763a167.34 167.34 0 0 0-60.158 50.472 2828.253 2828.253 0 0 0-20.632 28.342c-9.862 13.707-12.58 31.131-8.061 47.401 3.626 13.051 24.529 38.177 58.171 38.177l58.096.002c-5.596-49.005 1.861-98.773 21.578-143.977z" opacity="1" data-original="#d4d4ff"></path>
        <path fill="#4c5699" d="M266.178 338.835c-9.763-5.858-25.592-5.858-35.355 0-9.763 5.858-9.763 15.355 0 21.213l17.678 10.607 17.678-10.607c9.762-5.857 9.762-15.355-.001-21.213z" opacity="1" data-original="#4c5699"></path>
        <path fill="#d6948c" d="M180.051 281.725c-12.406 0-22.5 10.093-22.5 22.5v10.366c0 12.407 10.094 22.5 22.5 22.5s22.5-10.093 22.5-22.5v-10.366c0-12.407-10.093-22.5-22.5-22.5z" opacity="1" data-original="#d6948c"></path>
        <path fill="#7ce3ff" d="M316.949 281.725c-12.406 0-22.5 10.093-22.5 22.5v10.366c0 12.407 10.094 22.5 22.5 22.5s22.5-10.093 22.5-22.5v-10.366c0-12.407-10.094-22.5-22.5-22.5z" opacity="1" data-original="#7ce3ff"></path>
        <g fill="#313d40">
            <path d="M180.051 296.725a7.499 7.499 0 0 0-7.5 7.5v10.366c0 4.143 3.357 7.5 7.5 7.5s7.5-3.357 7.5-7.5v-10.366a7.5 7.5 0 0 0-7.5-7.5zM316.948 296.725a7.499 7.499 0 0 0-7.5 7.5v10.366c0 4.143 3.357 7.5 7.5 7.5s7.5-3.357 7.5-7.5v-10.366a7.5 7.5 0 0 0-7.5-7.5z" fill="#313d40" opacity="1" data-original="#313d40"></path>
        </g>
    </g>
</svg>