<svg xmlns="http://www.w3.org/2000/svg" version="1.1" xmlns:xlink="http://www.w3.org/1999/xlink" width="512" height="512" x="0" y="0" viewBox="0 0 512 512" style="enable-background:new 0 0 512 512" xml:space="preserve" class="">
    <g>
        <path fill="#8a868d" d="M147.025 114.587h316.223v41.184H147.025zM147.025 254.872h316.223v41.111H147.025z" opacity="1" data-original="#8a868d"></path>
        <path fill="#da759d" d="M496.536 32.11v65.824c0 9.194-7.446 16.65-16.639 16.65H130.385c-9.193 0-16.649-7.457-16.649-16.65V32.11c0-9.192 7.457-16.649 16.649-16.649h349.511c9.193-.001 16.64 7.457 16.64 16.649z" opacity="1" data-original="#da759d" class=""></path>
        <path fill="#89d7ed" d="M113.736 328.901v-16.315c0-9.151 7.488-16.628 16.639-16.628h349.511c9.161 0 16.649 7.478 16.649 16.628v65.824c0 9.245-7.488 16.649-16.649 16.649H285.103" opacity="1" data-original="#89d7ed"></path>
        <path fill="#62bba7" d="M496.536 172.416v65.824c0 9.193-7.446 16.639-16.639 16.639H130.385c-9.193 0-16.649-7.446-16.649-16.639v-65.824c0-9.193 7.457-16.649 16.649-16.649h349.511c9.193 0 16.64 7.457 16.64 16.649z" opacity="1" data-original="#62bba7"></path>
        <g fill="#fff">
            <path d="M463.246 65.016c0 9.967-8.074 18.041-18.03 18.041s-18.03-8.075-18.03-18.041c0-9.956 8.074-18.03 18.03-18.03 9.957.001 18.03 8.074 18.03 18.03zM396.673 65.016c0 9.967-8.074 18.041-18.03 18.041s-18.03-8.075-18.03-18.041c0-9.956 8.074-18.03 18.03-18.03 9.956.001 18.03 8.074 18.03 18.03zM463.246 205.323c0 9.957-8.074 18.041-18.03 18.041s-18.03-8.084-18.03-18.041c0-9.955 8.074-18.03 18.03-18.03 9.957 0 18.03 8.075 18.03 18.03zM396.673 205.323c0 9.957-8.074 18.041-18.03 18.041s-18.03-8.084-18.03-18.041c0-9.955 8.074-18.03 18.03-18.03s18.03 8.075 18.03 18.03zM463.246 345.548c0 9.956-8.074 18.03-18.03 18.03s-18.03-8.074-18.03-18.03 8.074-18.04 18.03-18.04c9.957 0 18.03 8.084 18.03 18.04zM396.673 345.548c0 9.956-8.074 18.03-18.03 18.03s-18.03-8.074-18.03-18.03 8.074-18.04 18.03-18.04 18.03 8.084 18.03 18.04z" fill="#ffffff" opacity="1" data-original="#ffffff"></path>
        </g>
        <path fill="#f9e278" d="M264.189 496.537H36.379c-11.556 0-20.916-9.371-20.916-20.916v-125.78c0-11.556 9.36-20.916 20.916-20.916h227.81c11.556 0 20.916 9.36 20.916 20.916v125.78c0 11.546-9.36 20.916-20.916 20.916z" opacity="1" data-original="#f9e278"></path>
        <path d="M479.896 120.402c12.385 0 22.46-10.078 22.46-22.467V32.109c0-12.389-10.074-22.467-22.46-22.467h-349.51c-12.389 0-22.471 10.078-22.471 22.467v65.825c0 12.389 10.082 22.467 22.471 22.467h10.821v29.544h-10.821c-12.389 0-22.471 10.082-22.471 22.471v65.821c0 12.385 10.082 22.46 22.471 22.46h10.821v29.438h-10.832c-12.385 0-22.46 10.07-22.46 22.448v10.521H36.381c-14.408 0-26.737 11.906-26.737 26.737v125.778c0 14.812 12.427 26.737 26.737 26.737h227.808c14.869 0 26.737-12.413 26.737-26.737v-74.744h188.959c12.389 0 22.471-10.078 22.471-22.467v-65.825c0-12.378-10.082-22.448-22.471-22.448h-10.817v-29.438h10.828c12.385 0 22.46-10.074 22.46-22.46v-65.821c0-12.389-10.074-22.471-22.46-22.471h-10.828v-29.544h10.828zM266.708 335l-95.877 73.512c-12.249 7.627-28.787 7.619-40.691.299l-96.306-73.808c2.006-.344 230.432-.418 232.874-.003zm12.579 14.843v125.778c0 1.824-.376 3.551-.971 5.172l-85.126-74.788 83.743-64.177c1.47 2.328 2.354 5.064 2.354 8.015zM23.68 483.715c-1.5-2.344-2.397-5.111-2.397-8.094V349.843c0-2.942.88-5.67 2.343-7.994l86.108 66.061zm9.972 6.728 85.529-75.343 4.394 3.304c16.094 9.934 37.538 9.854 53.86-.326l6.335-4.855 86.639 76.117c-1.902.867-3.997 1.379-6.22 1.379-243.523-.12-227.648.256-230.537-.276zm457.065-177.858v65.825c0 5.971-4.861 10.828-10.832 10.828H290.926v-39.395c0-14.857-12.373-26.737-26.737-26.737H119.555v-10.521c0-5.96 4.853-10.809 10.821-10.809.845 0 372.733.008 349.51 0 5.97-.001 10.831 4.849 10.831 10.809zm-33.288-22.449H152.846v-29.438h304.583zm33.288-117.719v65.821c0 5.967-4.853 10.821-10.821 10.821h-16.61c-.013 0-.024-.008-.037-.008H147.027c-.013 0-.024.008-.037.008h-16.603c-5.971 0-10.832-4.853-10.832-10.821v-65.821c0-5.971 4.861-10.832 10.832-10.832h349.51c5.967 0 10.82 4.861 10.82 10.832zm-337.871-22.471v-29.541h304.583v29.541zm-33.291-52.012V32.109c0-5.971 4.861-10.828 10.832-10.828h349.51c5.967 0 10.821 4.857 10.821 10.828v65.825c0 5.971-4.853 10.828-10.821 10.828h-349.51c-5.971.001-10.832-4.856-10.832-10.828z" fill="#000000" opacity="1" data-original="#000000" class=""></path>
        <path d="M158.052 42.937h-11.033a5.82 5.82 0 0 0-5.819 5.819 5.82 5.82 0 0 0 5.819 5.819h11.033a5.82 5.82 0 0 0 0-11.638zM158.052 76.221h-11.033c-3.213 0-5.819 2.607-5.819 5.819s2.607 5.819 5.819 5.819h11.033c3.213 0 5.819-2.607 5.819-5.819s-2.606-5.819-5.819-5.819zM199.667 42.937h-11.033a5.82 5.82 0 0 0-5.819 5.819 5.82 5.82 0 0 0 5.819 5.819h11.033a5.82 5.82 0 0 0 0-11.638zM199.667 76.221h-11.033c-3.213 0-5.819 2.607-5.819 5.819s2.607 5.819 5.819 5.819h11.033c3.213 0 5.819-2.607 5.819-5.819s-2.606-5.819-5.819-5.819zM241.268 42.937h-11.021a5.82 5.82 0 0 0-5.819 5.819 5.82 5.82 0 0 0 5.819 5.819h11.021c3.213 0 5.819-2.607 5.819-5.819s-2.607-5.819-5.819-5.819zM241.268 76.221h-11.021c-3.213 0-5.819 2.607-5.819 5.819s2.607 5.819 5.819 5.819h11.021c3.213 0 5.819-2.607 5.819-5.819s-2.607-5.819-5.819-5.819zM282.872 42.937H271.85a5.82 5.82 0 0 0-5.819 5.819 5.82 5.82 0 0 0 5.819 5.819h11.021a5.82 5.82 0 0 0 .001-11.638zM282.872 76.221H271.85c-3.213 0-5.819 2.607-5.819 5.819s2.607 5.819 5.819 5.819h11.021c3.213 0 5.819-2.607 5.819-5.819s-2.606-5.819-5.818-5.819zM324.479 42.937h-11.021a5.82 5.82 0 0 0-5.819 5.819 5.82 5.82 0 0 0 5.819 5.819h11.021a5.82 5.82 0 0 0 0-11.638zM324.479 76.221h-11.021c-3.213 0-5.819 2.607-5.819 5.819s2.607 5.819 5.819 5.819h11.021c3.213 0 5.819-2.607 5.819-5.819s-2.606-5.819-5.819-5.819zM445.218 41.168c-13.151 0-23.85 10.699-23.85 23.85 0 13.154 10.699 23.858 23.85 23.858s23.846-10.703 23.846-23.858c.001-13.151-10.695-23.85-23.846-23.85zm0 36.069c-6.733 0-12.211-5.482-12.211-12.219 0-6.733 5.479-12.211 12.211-12.211 6.733 0 12.207 5.478 12.207 12.211.001 6.736-5.474 12.219-12.207 12.219zM378.643 41.168c-13.151 0-23.85 10.699-23.85 23.85 0 13.154 10.699 23.858 23.85 23.858s23.85-10.703 23.85-23.858c0-13.151-10.699-23.85-23.85-23.85zm0 36.069c-6.733 0-12.211-5.482-12.211-12.219 0-6.733 5.479-12.211 12.211-12.211 6.733 0 12.211 5.478 12.211 12.211 0 6.736-5.479 12.219-12.211 12.219zM158.052 183.234h-11.033a5.82 5.82 0 0 0-5.819 5.819 5.82 5.82 0 0 0 5.819 5.819h11.033a5.82 5.82 0 0 0 0-11.638zM158.052 216.518h-11.033a5.82 5.82 0 0 0-5.819 5.819 5.82 5.82 0 0 0 5.819 5.819h11.033a5.82 5.82 0 0 0 0-11.638zM199.667 183.234h-11.033a5.82 5.82 0 0 0-5.819 5.819 5.82 5.82 0 0 0 5.819 5.819h11.033a5.82 5.82 0 0 0 0-11.638zM199.667 216.518h-11.033a5.82 5.82 0 0 0-5.819 5.819 5.82 5.82 0 0 0 5.819 5.819h11.033a5.82 5.82 0 0 0 0-11.638zM241.268 183.234h-11.021a5.82 5.82 0 0 0-5.819 5.819 5.82 5.82 0 0 0 5.819 5.819h11.021a5.82 5.82 0 0 0 5.819-5.819 5.82 5.82 0 0 0-5.819-5.819zM241.268 216.518h-11.021a5.82 5.82 0 0 0-5.819 5.819 5.82 5.82 0 0 0 5.819 5.819h11.021a5.82 5.82 0 0 0 5.819-5.819 5.82 5.82 0 0 0-5.819-5.819zM282.872 183.234H271.85a5.82 5.82 0 0 0-5.819 5.819 5.82 5.82 0 0 0 5.819 5.819h11.021a5.82 5.82 0 0 0 .001-11.638zM282.872 216.518H271.85a5.82 5.82 0 0 0-5.819 5.819 5.82 5.82 0 0 0 5.819 5.819h11.021a5.82 5.82 0 0 0 .001-11.638zM324.479 183.234h-11.021a5.82 5.82 0 0 0-5.819 5.819 5.82 5.82 0 0 0 5.819 5.819h11.021a5.82 5.82 0 0 0 0-11.638zM324.479 216.518h-11.021a5.82 5.82 0 0 0-5.819 5.819 5.82 5.82 0 0 0 5.819 5.819h11.021a5.82 5.82 0 0 0 0-11.638zM445.218 181.472c-13.151 0-23.85 10.699-23.85 23.85 0 13.158 10.699 23.861 23.85 23.861s23.846-10.703 23.846-23.861c.001-13.151-10.695-23.85-23.846-23.85zm0 36.072c-6.733 0-12.211-5.482-12.211-12.222 0-6.733 5.479-12.211 12.211-12.211 6.733 0 12.207 5.478 12.207 12.211.001 6.74-5.474 12.222-12.207 12.222zM378.643 181.472c-13.151 0-23.85 10.699-23.85 23.85 0 13.158 10.699 23.861 23.85 23.861s23.85-10.703 23.85-23.861c0-13.151-10.699-23.85-23.85-23.85zm0 36.072c-6.733 0-12.211-5.482-12.211-12.222 0-6.733 5.479-12.211 12.211-12.211 6.733 0 12.211 5.478 12.211 12.211 0 6.74-5.479 12.222-12.211 12.222zM445.218 321.689c-13.151 0-23.85 10.703-23.85 23.858 0 13.151 10.699 23.85 23.85 23.85s23.846-10.699 23.846-23.85c.001-13.155-10.695-23.858-23.846-23.858zm0 36.069c-6.733 0-12.211-5.478-12.211-12.211 0-6.736 5.479-12.219 12.211-12.219 6.733 0 12.207 5.482 12.207 12.219.001 6.732-5.474 12.211-12.207 12.211zM378.643 321.689c-13.151 0-23.85 10.703-23.85 23.858 0 13.151 10.699 23.85 23.85 23.85s23.85-10.699 23.85-23.85c0-13.155-10.699-23.858-23.85-23.858zm0 36.069c-6.733 0-12.211-5.478-12.211-12.211 0-6.736 5.479-12.219 12.211-12.219 6.733 0 12.211 5.482 12.211 12.219 0 6.732-5.479 12.211-12.211 12.211z" fill="#000000" opacity="1" data-original="#000000" class=""></path>
    </g>
</svg>